<?xml version="1.0" encoding="UTF-8"?>
<svg id="Layer_2" data-name="Layer 2" xmlns="http://www.w3.org/2000/svg" viewBox="0 0 232.63 149.95">
  <defs>
    <style>
      .cls-1 {
        fill: #231f20;
      }

      .cls-2 {
        fill: #8ac7e1;
      }

      .cls-3 {
        fill: #eeb853;
      }
    </style>
  </defs>
  <g id="Layer_1-2" data-name="Layer 1">
    <g>
      <g>
        <path class="cls-1" d="M113.38,78.48l3.71-11.48h-12.41l2.55-8-10.9-3.6c-.16.46-.31.93-.46,1.39-.16.46-.31.97-.46,1.51-.85,2.4-2.01,4.6-3.48,6.61-1.47,2.01-3.71,3.02-6.73,3.02-.54,0-.93-.13-1.16-.41-.23-.27-.35-.56-.35-.87,0-.23.04-.5.12-.81.08-.31.15-.58.23-.81.15-.31.29-.58.41-.81.12-.23.25-.46.41-.7.15-.31.31-.58.46-.81.15-.23.27-.42.35-.58,1.31-1.78,2.86-3.29,4.64-4.52,1.78-1.24,3.67-2.2,5.68-2.9,2.24-.85,4.58-1.43,7.02-1.74,2.44-.31,4.89-.46,7.37-.46v-11.48h-1.62c-6.19.16-12.16,1.3-17.92,3.42-5.76,2.13-10.58,5.78-14.44,10.96-1.24,1.62-2.24,3.38-3.02,5.28-.77,1.9-1.16,3.85-1.16,5.86,0,.16.02.31.03.46h-6.75c1.08-1.7,1.95-3.5,2.61-5.39.66-1.89.99-3.81.99-5.74,0-3.25-.91-6.15-2.73-8.7-1.82-2.55-4.27-4.33-7.37-5.34-.85-.31-1.7-.52-2.55-.64-.85-.12-1.7-.17-2.55-.17-3.33,0-6.52.83-9.57,2.49-3.06,1.66-5.82,3.69-8.29,6.09-.08-1.24-.19-2.38-.35-3.42-.16-1.04-.35-1.99-.58-2.84-.08-.46-.16-.89-.23-1.28-.08-.39-.16-.77-.23-1.16,0-.23-.08-.54-.23-.93l-11.25,2.44c.08.08.13.17.17.29.04.12.1.37.17.75.08.23.13.5.17.81.04.31.1.62.17.93.23.93.42,1.99.58,3.19.15,1.2.23,2.53.23,4,0,1.93-.2,4.14-.58,6.61-.39,2.48-1.08,5.3-2.09,8.47l-12.99,40.14,10.91,3.6,9.74-30.28c1.31-3.94,3.02-7.64,5.1-11.08,2.09-3.44,4.25-6.48,6.5-9.11.23-.23.46-.48.7-.75.23-.27.43-.52.58-.75,2.01-2.09,3.98-3.73,5.92-4.93,1.93-1.2,3.67-1.8,5.22-1.8,1.08,0,2.01.25,2.78.75.77.5,1.16,1.37,1.16,2.61,0,2.24-.95,4.35-2.84,6.32-1.89,1.97-4,3.38-6.32,4.23-.54.16-1.08.29-1.62.41-.54.12-1.08.17-1.62.17h-7.54v11.48h34.45l1.8-5.55c1.21,2.14,2.78,3.74,4.76,4.74,2.12,1.08,4.39,1.62,6.79,1.62.46,0,.93-.02,1.39-.06.27-.02.54-.07.81-.1-.47,1.12-.73,2.39-.73,3.78,0,5.18,3.86,8.69,9.66,8.69s9.66-3.51,9.66-8.69c0-1.67-.37-3.16-1.04-4.43h8.2Z"/>
        <path class="cls-1" d="M24.48,120.22L0,112.15l15.18-46.89c.88-2.77,1.5-5.27,1.83-7.38.33-2.1.49-3.96.49-5.5,0-1.15-.06-2.19-.17-3.09-.12-.93-.26-1.73-.42-2.37-.07-.28-.13-.56-.19-.85l-7.82-7.89,29.9-6.47,2.17,5.49c5.14-2.78,10.78-3.85,16.42-3.08,1.31.18,2.62.5,3.91.96,4.51,1.49,8.17,4.16,10.86,7.95.86,1.21,1.59,2.48,2.18,3.8,3.98-4.06,8.68-7.11,14.01-9.08,6.47-2.39,13.27-3.69,20.22-3.86h1.8s7.14,0,7.14,0v25.76h-2.98l-.07.22h12.45l-8.33,25.76h-5.43c-1.25,7.75-7.84,13.13-16.59,13.13s-15.26-5.31-16.56-12.99c-.85-.21-1.68-.48-2.5-.8l-.21.65h-41.67l-11.14,34.61ZM96.3,76.93l-2.1,4.97c-.11.26-.17.61-.17,1.01,0,.54,0,1.56,2.52,1.56s2.52-1.01,2.52-1.56c0-.46-.07-.84-.21-1.11l-2.56-4.87Z"/>
      </g>
      <g>
        <path class="cls-1" d="M123.93,56.67c0-.08.02-.17.06-.29.04-.12.1-.21.17-.29.31-.7.81-1.37,1.51-2.03.7-.66,1.43-1.1,2.2-1.33.23-.08.44-.13.64-.17.19-.04.41-.06.64-.06h1.86c-1.47,2.01-2.75,4.2-3.83,6.55-1.08,2.36-1.62,4.78-1.62,7.25,0,.46.02.93.06,1.39.04.46.14.93.29,1.39.08.54.19,1.04.35,1.51.15.46.35.93.58,1.39,1.16,2.17,2.76,3.79,4.81,4.87,2.05,1.08,4.27,1.62,6.67,1.62h9.28l3.71-11.48h-12.99c-.46,0-.79-.1-.99-.29-.19-.19-.33-.44-.41-.75,0-.7.35-1.6,1.04-2.73.7-1.12,1.54-2.34,2.55-3.65.31-.31.62-.66.93-1.04.31-.39.62-.73.93-1.04,1-1.16,1.97-2.2,2.9-3.13.93-.93,1.62-1.55,2.09-1.86h4.41v-11.6h-22.85l.58-1.51-11.02-3.6-6.38,19.95,10.91,3.6.93-2.67Z"/>
        <path class="cls-1" d="M152.79,85.62h-14.48c-3.57,0-6.93-.83-10.01-2.45-3.31-1.75-5.93-4.38-7.77-7.81l-.09-.18c-.38-.76-.71-1.54-.96-2.32-.23-.68-.41-1.41-.55-2.16-.22-.79-.36-1.6-.43-2.4-.06-.66-.08-1.33-.08-1.99,0-.32,0-.63.02-.95l-15.29-5.04,10.72-33.53,21.39,6.98h23.65v25.88h-8.82c-.07.07-.15.15-.22.22h11.24l-8.33,25.76Z"/>
      </g>
      <g>
        <path class="cls-1" d="M161.17,78.48l4.41-13.46,3.02,6.84c1.01,2.32,2.55,3.98,4.64,4.99,2.09,1.01,4.25,1.55,6.5,1.62h5.34l3.83-11.48h-8.58c-.31,0-.6-.02-.87-.06-.27-.04-.48-.1-.64-.17l-2.9-6.61,16.94-12.53-6.84-9.28-15.54,11.6,13.8-42.8h-12.07l-23.08,71.34h12.06Z"/>
        <path class="cls-1" d="M190.21,85.62h-10.72c-3.23-.11-6.37-.9-9.35-2.33-.9-.43-1.74-.94-2.53-1.51l-1.26,3.85h-27.05L166.99,0h27.06l-9.95,30.84,3.36-2.51,15.34,20.8-14.51,10.73h10.49l-8.59,25.76Z"/>
      </g>
      <g>
        <path class="cls-1" d="M75.82,110.4c4.74-1.4,7.82-6.06,7.82-12.38,0-10.27-7.64-17.12-19.14-17.12h-26.44c-.7,0-1.23.7-1.23,1.32v58.05c0,.61.53,1.23,1.23,1.23h27.84c11.42,0,19.06-6.85,19.06-17.13,0-7.29-3.6-12.56-9.13-13.96ZM54.92,96.61h5.53c2.64,0,4.39,1.58,4.39,4.04s-1.76,4.04-4.39,4.04h-5.53v-8.08ZM62.04,125.77h-7.11v-8.43h7.11c2.55,0,4.3,1.67,4.3,4.22s-1.76,4.22-4.3,4.22Z"/>
        <path class="cls-1" d="M65.9,148.63h-27.84c-4.62,0-8.37-3.75-8.37-8.37v-58.05c0-4.66,3.75-8.46,8.37-8.46h26.44c15.48,0,26.28,9.98,26.28,24.26,0,4.53-1.19,8.63-3.3,11.92,2.94,3.75,4.62,8.76,4.62,14.43,0,14.29-10.77,24.26-26.2,24.26ZM43.97,134.35h21.93c7.46,0,11.92-3.73,11.92-9.99,0-1.43-.27-6.16-3.75-7.04l-1.51-.38c.59,1.4.92,2.95.92,4.62,0,6.47-4.92,11.35-11.44,11.35h-14.25v-43.44h12.67c6.57,0,11.53,4.81,11.53,11.18,0,1.27-.2,2.48-.57,3.61l2.38-.7c1.99-.59,2.71-3.25,2.71-5.54,0-9.27-9.19-9.99-12.01-9.99h-20.53v46.32Z"/>
      </g>
      <g>
        <path class="cls-1" d="M104.37,93.19h-15.46c-.7,0-1.32.61-1.32,1.23v45.75c0,.7.61,1.32,1.32,1.32h15.46c.7,0,1.32-.61,1.32-1.32v-45.75c0-.61-.61-1.23-1.32-1.23Z"/>
        <path class="cls-1" d="M104.37,148.63h-15.46c-4.66,0-8.46-3.79-8.46-8.46v-45.75c0-4.61,3.79-8.37,8.46-8.37h15.46c4.66,0,8.46,3.75,8.46,8.37v45.75c0,4.66-3.79,8.46-8.46,8.46ZM94.74,134.35h3.81v-34.02h-3.81v34.02Z"/>
      </g>
      <g>
        <path class="cls-1" d="M138.45,102.94l.97-8.52c0-.7-.53-1.23-1.32-1.23h-6.59v-11.07c0-.61-.61-1.32-1.32-1.23l-15.46,1.49c-.7.09-1.32.61-1.32,1.23v9.57h-5.01c-.61,0-1.23.53-1.23,1.32v8.52c0,.7.61,1.23,1.23,1.23h5.01v35.92c0,.7.61,1.32,1.32,1.32h15.46c.7,0,1.32-.61,1.32-1.32v-35.92h5.62c.7,0,1.23-.61,1.32-1.32Z"/>
        <path class="cls-1" d="M130.2,148.63h-15.46c-4.66,0-8.46-3.79-8.46-8.46v-29.06c-3.58-.95-6.24-4.22-6.24-8.09v-8.52c0-3.92,2.65-7.22,6.24-8.18v-2.71c0-4.2,3.25-7.77,7.57-8.31l.2-.02,15.41-1.49c2.27-.24,4.57.5,6.32,2.04,1.83,1.61,2.87,3.9,2.87,6.29v3.94c4.47.27,7.9,3.84,7.9,8.35l-.05.8-.98,8.6c-.47,3.79-3.32,6.76-6.88,7.43v28.92c0,4.66-3.79,8.46-8.46,8.46ZM120.56,134.35h3.81v-45.72l-3.81.37v45.36Z"/>
      </g>
      <g>
        <path class="cls-1" d="M163.22,91.96c-15.28,0-25.47,10.19-25.47,25.47s10.36,25.38,25.91,25.38c6.76,0,13.53-1.84,18.18-4.92.61-.35.79-.7.61-1.32l-3.78-10.89c-.18-.61-.7-.97-1.32-.7-3.95,1.84-8.96,2.9-13.44,2.9-7.38,0-7.38-5.53-7.38-5.53h28.19c.79,0,1.23-.35,1.32-1.05.26-1.32.35-2.63.35-3.95,0-15.98-8.61-25.38-23.19-25.38ZM156.46,113.12c0-3.86,2.64-6.41,6.59-6.41,3.51,0,5.88,2.55,5.88,6.41h-12.47Z"/>
        <path class="cls-1" d="M163.66,149.95c-19.46,0-33.05-13.37-33.05-32.52s13.41-32.61,32.61-32.61,30.32,12.76,30.32,32.52c0,1.88-.15,3.57-.45,5.17-.52,3.22-2.7,5.66-5.68,6.58l1.9,5.52c1.05,3.68-.39,7.31-3.69,9.33-5.86,3.82-13.85,6.01-21.97,6.01ZM163.22,99.1c-11.31,0-18.33,7.02-18.33,18.33s7.19,18.24,18.77,18.24c3.58,0,7.23-.65,10.3-1.79l-.05-.15c-3.26.83-6.69,1.28-9.99,1.28-10.58,0-14.52-7.77-14.52-12.67v-2.08h-.09v-7.14c0-7.85,5.77-13.55,13.73-13.55,7.42,0,13.02,5.83,13.02,13.55v2.08h3.14c-.61-10.69-5.98-16.11-15.99-16.11ZM161.9,113.12c.22.32.66.64,1.01.71.26-.12.56-.44.66-.71h-1.67Z"/>
      </g>
      <g>
        <path class="cls-1" d="M206.26,107.42c0-1.4,1.23-2.28,3.07-2.11,2.99,0,6.67,1.4,10.1,3.6.44.26.97.18,1.14-.35l4.48-10.36c.18-.44-.09-.88-.53-1.23-.39-.25-.81-.48-1.22-.71-.59,1.1-1.65,1.93-2.97,2.16-1.36.24-2.68-.21-3.62-1.09-.7,1.17-1.87,2.06-3.32,2.31-2.65.47-5.18-1.3-5.65-3.95-.04-.22-.04-.44-.05-.66-.02,0-.04.01-.06.02-2.08.37-4.05-.85-4.72-2.78-9.47,1.37-15.54,7.22-15.54,15.41,0,16.51,19.23,15.11,19.23,19.58,0,1.32-1.23,2.37-3.07,2.2-2.99,0-6.67-1.58-10.1-3.6-.44-.26-.97-.18-1.14.35l-4.48,10.19c-.18.53.09.97.53,1.4,4.92,2.99,12.03,5.01,17.74,5.01,11.68,0,19.41-6.32,19.41-15.72,0-16.69-19.23-15.02-19.23-19.67Z"/>
        <path class="cls-1" d="M206.08,149.95c-6.98,0-15.4-2.37-21.44-6.04l-.73-.45-.61-.61c-2.42-2.42-3.26-5.68-2.25-8.71l.24-.62,4.41-10.03c.08-.21.18-.41.27-.61-3.27-3.4-5.73-8.22-5.73-15.2,0-11.75,8.5-20.57,21.65-22.48,2.25,1.57,6.46,4.08,12.32,5.17,5.55,1.04,10.14.36,12.78-.24.23.13.47.26.71.4.23.14.46.28.68.42l.6.43c2.98,2.39,4.04,6.1,2.7,9.46l-.07.18-4.42,10.22c-.08.21-.17.41-.27.6,3.26,3.4,5.71,8.22,5.71,15.24,0,13.46-10.92,22.86-26.55,22.86ZM200.4,100.22c-2.84,1.05-5.88,3.18-5.88,7.46,0,5.35,2.86,6.97,9.37,9.41,3.93,1.47,9.86,3.69,9.86,10.17,0,2.58-1.1,5.06-3.02,6.81-.64.58-1.35,1.07-2.11,1.46,5.07-.58,9.74-3.01,9.74-8.44s-2.83-7.01-9.28-9.4c-3.72-1.38-9.96-3.7-9.96-10.27,0-2.44.92-4.7,2.6-6.4-.46-.23-.9-.5-1.32-.79ZM189.81,132.01s.06.03.09.05c-.03-.02-.06-.03-.09-.05Z"/>
      </g>
    </g>
    <g>
      <path class="cls-2" d="M72.08,78.48h-34.45v-11.48h7.54c.54,0,1.08-.06,1.62-.17.54-.12,1.08-.25,1.62-.41,2.32-.85,4.43-2.26,6.32-4.23,1.89-1.97,2.84-4.08,2.84-6.32,0-1.24-.39-2.11-1.16-2.61-.77-.5-1.7-.75-2.78-.75-1.55,0-3.29.6-5.22,1.8-1.93,1.2-3.91,2.84-5.92,4.93-.15.23-.35.48-.58.75-.23.27-.46.52-.7.75-2.24,2.63-4.41,5.67-6.5,9.11-2.09,3.44-3.79,7.13-5.1,11.08l-9.74,30.28-10.91-3.6,12.99-40.14c1-3.17,1.7-5.99,2.09-8.47.38-2.47.58-4.68.58-6.61,0-1.47-.08-2.8-.23-4-.16-1.2-.35-2.26-.58-3.19-.08-.31-.14-.62-.17-.93-.04-.31-.1-.58-.17-.81-.08-.39-.14-.64-.17-.75-.04-.12-.1-.21-.17-.29l11.25-2.44c.15.39.23.7.23.93.08.39.15.77.23,1.16.08.39.15.81.23,1.28.23.85.42,1.8.58,2.84.15,1.04.27,2.19.35,3.42,2.47-2.4,5.24-4.43,8.29-6.09,3.05-1.66,6.24-2.49,9.57-2.49.85,0,1.7.06,2.55.17.85.12,1.7.33,2.55.64,3.09,1.01,5.55,2.78,7.37,5.34,1.82,2.55,2.73,5.45,2.73,8.7,0,1.93-.33,3.85-.99,5.74-.66,1.9-1.53,3.69-2.61,5.39h10.32l-3.71,11.48Z"/>
      <path class="cls-2" d="M113.38,78.48h-11.25c-1.24,0-2.36-.19-3.36-.58-1.01-.39-1.93-.89-2.78-1.51-1.16.7-2.42,1.28-3.77,1.74-1.35.46-2.69.77-4,.93-.46.08-.93.13-1.39.17-.46.04-.93.06-1.39.06-2.4,0-4.66-.54-6.79-1.62-2.13-1.08-3.81-2.82-5.05-5.22-.46-1-.81-1.99-1.04-2.96-.23-.97-.35-1.95-.35-2.96,0-2.01.39-3.96,1.16-5.86.77-1.89,1.78-3.65,3.02-5.28,3.87-5.18,8.68-8.83,14.44-10.96,5.76-2.13,11.73-3.27,17.92-3.42h1.62v11.48c-2.47,0-4.93.16-7.37.46-2.44.31-4.78.89-7.02,1.74-2.01.7-3.91,1.66-5.68,2.9-1.78,1.24-3.33,2.75-4.64,4.52-.08.16-.19.35-.35.58-.15.23-.31.5-.46.81-.16.23-.29.46-.41.7-.12.23-.25.5-.41.81-.08.23-.16.5-.23.81-.08.31-.12.58-.12.81,0,.31.12.6.35.87.23.27.62.41,1.16.41,3.02,0,5.26-1,6.73-3.02,1.47-2.01,2.63-4.21,3.48-6.61.15-.54.31-1.04.46-1.51.15-.46.31-.93.46-1.39l10.9,3.6-2.55,8h12.41l-3.71,11.48Z"/>
      <path class="cls-2" d="M147.37,52.49c-.46.31-1.16.93-2.09,1.86-.93.93-1.9,1.97-2.9,3.13-.31.31-.62.66-.93,1.04-.31.39-.62.74-.93,1.04-1.01,1.32-1.86,2.53-2.55,3.65-.7,1.12-1.04,2.03-1.04,2.73.08.31.21.56.41.75.19.19.52.29.99.29h12.99l-3.71,11.48h-9.28c-2.4,0-4.62-.54-6.67-1.62-2.05-1.08-3.65-2.71-4.81-4.87-.23-.46-.43-.93-.58-1.39-.16-.46-.27-.97-.35-1.51-.15-.46-.25-.93-.29-1.39-.04-.46-.06-.93-.06-1.39,0-2.47.54-4.89,1.62-7.25,1.08-2.36,2.36-4.54,3.83-6.55h-1.86c-.23,0-.45.02-.64.06-.19.04-.41.1-.64.17-.77.23-1.51.68-2.2,1.33-.7.66-1.2,1.33-1.51,2.03-.08.08-.14.17-.17.29-.04.12-.06.21-.06.29l-.93,2.67-10.91-3.6,6.38-19.95,11.02,3.6-.58,1.51h22.85v11.6h-4.41Z"/>
      <path class="cls-2" d="M175.9,60.15l2.9,6.61c.15.08.37.14.64.17.27.04.56.06.87.06h8.58l-3.83,11.48h-5.34c-2.24-.08-4.41-.62-6.5-1.62-2.09-1-3.64-2.67-4.64-4.99l-3.02-6.84-4.41,13.46h-12.06L172.19,7.14h12.07l-13.8,42.8,15.54-11.6,6.84,9.28-16.94,12.53Z"/>
    </g>
    <g>
      <path class="cls-3" d="M64.5,80.89c11.5,0,19.14,6.85,19.14,17.12,0,6.32-3.07,10.98-7.82,12.38,5.53,1.41,9.13,6.67,9.13,13.96,0,10.27-7.64,17.13-19.06,17.13h-27.84c-.7,0-1.23-.61-1.23-1.23v-58.05c0-.61.53-1.32,1.23-1.32h26.44ZM60.46,104.69c2.64,0,4.39-1.58,4.39-4.04s-1.76-4.04-4.39-4.04h-5.53v8.08h5.53ZM62.04,125.77c2.55,0,4.3-1.67,4.3-4.22s-1.76-4.22-4.3-4.22h-7.11v8.43h7.11Z"/>
      <path class="cls-3" d="M106.22,82.91c0,5.18-3.86,8.69-9.66,8.69s-9.66-3.51-9.66-8.69c0-5.44,3.86-9.05,9.66-9.05s9.66,3.6,9.66,9.05ZM104.37,93.19c.7,0,1.32.61,1.32,1.23v45.75c0,.7-.61,1.32-1.32,1.32h-15.46c-.7,0-1.32-.61-1.32-1.32v-45.75c0-.61.61-1.23,1.32-1.23h15.46Z"/>
      <path class="cls-3" d="M138.1,93.19c.79,0,1.32.53,1.32,1.23l-.97,8.52c-.09.7-.61,1.32-1.32,1.32h-5.62v35.92c0,.7-.61,1.32-1.32,1.32h-15.46c-.7,0-1.32-.61-1.32-1.32v-35.92h-5.01c-.61,0-1.23-.53-1.23-1.23v-8.52c0-.79.61-1.32,1.23-1.32h5.01v-9.57c0-.61.61-1.14,1.32-1.23l15.46-1.49c.7-.09,1.32.61,1.32,1.23v11.07h6.59Z"/>
      <path class="cls-3" d="M182.45,136.57c.18.61,0,.97-.61,1.32-4.65,3.07-11.42,4.92-18.18,4.92-15.54,0-25.91-10.19-25.91-25.38s10.19-25.47,25.47-25.47,23.19,9.4,23.19,25.38c0,1.32-.09,2.63-.35,3.95-.09.7-.53,1.05-1.32,1.05h-28.19s0,5.53,7.38,5.53c4.48,0,9.48-1.05,13.44-2.9.61-.26,1.14.09,1.32.7l3.78,10.89ZM168.93,113.12c0-3.86-2.37-6.41-5.88-6.41-3.95,0-6.59,2.55-6.59,6.41h12.47Z"/>
      <path class="cls-3" d="M206.26,107.42c0-1.4,1.23-2.28,3.07-2.11,2.99,0,6.67,1.4,10.1,3.6.44.26.97.18,1.14-.35l4.48-10.36c.18-.44-.09-.88-.53-1.23-.39-.25-.81-.48-1.22-.71-.59,1.1-1.65,1.93-2.97,2.16-1.36.24-2.68-.21-3.62-1.09-.7,1.17-1.87,2.06-3.32,2.31-2.65.47-5.18-1.3-5.65-3.95-.04-.22-.04-.44-.05-.66-.02,0-.04.01-.06.02-2.08.37-4.05-.85-4.72-2.78-9.47,1.37-15.54,7.22-15.54,15.41,0,16.51,19.23,15.11,19.23,19.58,0,1.32-1.23,2.37-3.07,2.2-2.99,0-6.67-1.58-10.1-3.6-.44-.26-.97-.18-1.14.35l-4.48,10.19c-.18.53.09.97.53,1.4,4.92,2.99,12.03,5.01,17.74,5.01,11.68,0,19.41-6.32,19.41-15.72,0-16.69-19.23-15.02-19.23-19.67Z"/>
    </g>
  </g>
</svg>